<?xml version="1.0" encoding="UTF-8" standalone="no"?>
<!-- Created with Inkscape (http://www.inkscape.org/) -->

<svg
   width="420mm"
   height="210mm"
   viewBox="0 0 420 210"
   version="1.1"
   id="svg1"
   xml:space="preserve"
   inkscape:version="1.4.2 (ebf0e940, 2025-05-08)"
   sodipodi:docname="boris-logo.svg"
   inkscape:export-filename="boris-logo-v2.png"
   inkscape:export-xdpi="96"
   inkscape:export-ydpi="96"
   xmlns:inkscape="http://www.inkscape.org/namespaces/inkscape"
   xmlns:sodipodi="http://sodipodi.sourceforge.net/DTD/sodipodi-0.dtd"
   xmlns:xlink="http://www.w3.org/1999/xlink"
   xmlns="http://www.w3.org/2000/svg"
   xmlns:svg="http://www.w3.org/2000/svg"><sodipodi:namedview
     id="namedview1"
     pagecolor="#ffffff"
     bordercolor="#000000"
     borderopacity="0.25"
     inkscape:showpageshadow="2"
     inkscape:pageopacity="0.0"
     inkscape:pagecheckerboard="0"
     inkscape:deskcolor="#d1d1d1"
     inkscape:document-units="mm"
     inkscape:zoom="0.49947293"
     inkscape:cx="1044.1006"
     inkscape:cy="218.23004"
     inkscape:window-width="2560"
     inkscape:window-height="1027"
     inkscape:window-x="0"
     inkscape:window-y="25"
     inkscape:window-maximized="0"
     inkscape:current-layer="layer1"
     showguides="true"><sodipodi:guide
       position="22.711846,66.524254"
       orientation="1,0"
       id="guide3"
       inkscape:locked="false" /><sodipodi:guide
       position="202.27952,153.25469"
       orientation="1,0"
       id="guide4"
       inkscape:locked="false" /><sodipodi:guide
       position="209.07249,159.77319"
       orientation="0,-1"
       id="guide5"
       inkscape:locked="false" /><sodipodi:guide
       position="214.63038,144.06016"
       orientation="0,-1"
       id="guide6"
       inkscape:locked="false" /><sodipodi:guide
       position="219.15902,142.61923"
       orientation="1,0"
       id="guide7"
       inkscape:locked="false" /><sodipodi:guide
       position="299.91988,48.684133"
       orientation="0,-1"
       id="guide8"
       inkscape:locked="false" /><sodipodi:guide
       position="401.34695,194.86215"
       orientation="1,0"
       id="guide9"
       inkscape:locked="false" /></sodipodi:namedview><defs
     id="defs1"><linearGradient
       id="linearGradient2"
       inkscape:collect="always"><stop
         style="stop-color:#fde047;stop-opacity:1;"
         offset="0"
         id="stop2" /><stop
         style="stop-color:#f97316;stop-opacity:1;"
         offset="1"
         id="stop3" /></linearGradient><linearGradient
       inkscape:collect="always"
       xlink:href="#linearGradient2"
       id="linearGradient3"
       x1="307.52621"
       y1="152.47421"
       x2="329.85146"
       y2="152.47421"
       gradientUnits="userSpaceOnUse"
       gradientTransform="matrix(1.0408008,0,0,1.0408008,-13.002768,-6.1359144)" /></defs><g
     inkscape:label="Layer 1"
     inkscape:groupmode="layer"
     id="layer1"><path
       d="m 361.91353,127.0166 27.34974,-37.139715 -5.05902,-5.05902 -37.13972,27.349765 z m -32.2879,0.86332 v 0 -12.3799 c 0,-2.64174 1.24317,-5.11082 3.36693,-6.66478 l 47.15413,-34.756975 c 1.27769,-0.94965 2.83169,-1.45037 4.42014,-1.45037 1.96838,0 3.85037,0.77698 5.24898,2.17556 l 9.46187,9.4619 c 1.39861,1.39858 2.17558,3.2806 2.17558,5.26621 0,1.58849 -0.50073,3.14246 -1.45037,4.42017 L 365.26317,141.0886 c -1.55393,2.12375 -4.04027,3.36692 -6.66476,3.36692 h -12.37989 l -4.38561,4.38563 c -2.15829,2.15827 -5.66338,2.15827 -7.82166,0 l -8.75395,-8.75399 c -2.15828,-2.15828 -2.15828,-5.66333 0,-7.82161 z m -20.89218,25.26052 8.92668,-8.92665 12.18999,12.18998 -3.40146,3.40145 c -0.77697,0.77697 -1.83023,1.20863 -2.93525,1.20863 l -11.84464,0.0172 c -2.29644,0 -4.1439,-1.84749 -4.1439,-4.1439 v -0.81151 c 0,-1.10505 0.43162,-2.15829 1.20858,-2.93527 z"
       id="path1"
       style="fill:#f97316;fill-opacity:1;stroke-width:0.172662"
       inkscape:label="highlighter"
       sodipodi:nodetypes="cccccccsccsccsccscssscccccsccsscc" /><path
       d="m 308.32866,153.09852 9.29089,-9.29087 12.68735,12.68734 -3.54024,3.54024 c -0.80867,0.80868 -1.9049,1.25795 -3.05501,1.25795 l -12.32791,0.0179 c -2.39014,0 -4.31297,-1.92287 -4.31297,-4.31298 v -0.84462 c 0,-1.15014 0.44923,-2.24635 1.25789,-3.05504 z"
       id="path1-4"
       style="fill:url(#linearGradient3);stroke-width:0.179707"
       inkscape:label="highlighter"
       sodipodi:nodetypes="cccsccsscc" /><path
       style="font-size:129.483px;font-family:Coolvetica;-inkscape-font-specification:Coolvetica;fill:#fde047;stroke-width:8.94917;fill-opacity:1"
       d="M 299.50264,161.37407 V 145.70662 H 22.758856 v 15.66745 z"
       id="path2"
       aria-label="boris"
       sodipodi:nodetypes="ccccc"
       inkscape:label="underline" /></g><g
     inkscape:groupmode="layer"
     id="layer2"
     inkscape:label="Layer 2"><path
       style="font-size:129.483px;font-family:Coolvetica;-inkscape-font-specification:Coolvetica;fill:#f97316;stroke-width:2.2071;fill-opacity:1"
       d="M 219.18149,65.97393 V 50.306487 H 202.3487 V 65.97393 Z"
       id="text1"
       aria-label="boris"
       sodipodi:nodetypes="ccccc"
       inkscape:label="i-punkt" /><path
       style="font-size:129.483px;font-family:Coolvetica;-inkscape-font-specification:Coolvetica;fill:#9333ea;stroke-width:2.2071;fill-opacity:1"
       d="m 52.905747,125.26063 c -8.02795,0 -14.24313,-7.51001 -14.24313,-18.2571 0,-13.854685 4.79087,-20.717285 14.11364,-20.717285 9.84071,0 14.5021,6.60363 14.5021,19.681425 0,11.3945 -5.95622,19.29296 -14.37261,19.29296 z m -13.98417,12.04192 0.12949,-7.76898 c 4.01397,6.47415 9.97019,9.45226 17.73917,9.45226 16.05589,0 27.57988,-12.68933 27.57988,-34.18351 0,-19.292975 -9.71123,-32.888685 -26.15557,-32.888685 -7.89846,0 -14.11365,3.23707 -18.90452,9.97019 V 50.289976 h -16.57382 v 87.012574 z m 82.998633,-12.43036 c -10.22916,0 -15.40848,-6.47415 -15.40848,-19.42245 0,-12.948305 5.17932,-19.292975 15.40848,-19.292975 10.22915,0 15.40847,6.34467 15.40847,19.292975 0,12.9483 -5.17932,19.42245 -15.40847,19.42245 z m 0,14.11364 c 19.8109,0 32.37075,-13.33675 32.37075,-33.53609 0,-20.328845 -12.43037,-33.536105 -32.37075,-33.536105 -20.19935,0 -32.759203,13.33675 -32.759203,33.536105 0,19.81089 12.171403,33.53609 32.759203,33.53609 z m 55.28918,-1.68328 v -33.14764 c 0,-10.229165 5.04984,-15.408485 15.40848,-15.408485 1.5538,0 3.10759,0.12948 4.66139,0.38845 v -17.22124 h -2.20121 c -6.8626,0 -13.33675,0.7769 -18.90452,9.32277 v -7.63949 H 160.3766 v 63.705635 z m 41.95239,0 V 73.596915 h -16.83279 v 63.705635 z m 62.15176,-44.412675 c -0.90638,-13.72519 -9.19329,-20.97624 -27.57988,-20.97624 -19.42245,0 -26.80298,8.15743 -26.80298,18.90452 0,5.69725 2.07173,10.617605 8.02794,14.372615 4.53191,2.84863 10.48813,4.66139 21.23522,7.25105 5.43828,1.29483 10.22915,2.71914 10.22915,7.25105 0,4.79087 -5.3088,6.60363 -11.26502,6.60363 -8.15743,0 -13.20726,-3.49604 -13.20726,-9.45226 h -17.35073 c 0.25897,12.9483 11.13554,22.14159 30.68748,22.14159 18.12762,0 27.83884,-7.89846 27.83884,-21.10573 0,-8.28691 -3.75501,-12.68933 -10.48812,-15.40847 -4.92036,-1.94225 -11.78296,-3.366565 -19.034,-5.438295 -6.8626,-1.94224 -10.35864,-3.49604 -10.35864,-7.25105 0,-3.755 3.62552,-5.3088 9.97019,-5.3088 7.63949,0 11.00605,2.20121 11.91243,8.41639 z"
       id="text1-7"
       aria-label="boris"
       inkscape:label="boris"
       sodipodi:nodetypes="sssssccssscccccsssssssssscssccscccccccccccssccssccssccsscc" /></g></svg>
