<?xml version="1.0" encoding="UTF-8" standalone="no"?>
<svg
   width="751.13137"
   height="556.41471"
   viewBox="0 0 751.13137 556.41471"
   role="img"
   artist="Katerina Limpitsouni"
   source="https://undraw.co/"
   version="1.1"
   id="svg25"
   sodipodi:docname="comforting-colors.svg"
   inkscape:version="1.4.2 (ebf0e940, 2025-05-08)"
   xmlns:inkscape="http://www.inkscape.org/namespaces/inkscape"
   xmlns:sodipodi="http://sodipodi.sourceforge.net/DTD/sodipodi-0.dtd"
   xmlns="http://www.w3.org/2000/svg"
   xmlns:svg="http://www.w3.org/2000/svg">
  <defs
     id="defs25" />
  <sodipodi:namedview
     id="namedview25"
     pagecolor="#ffffff"
     bordercolor="#000000"
     borderopacity="0.25"
     inkscape:showpageshadow="2"
     inkscape:pageopacity="0.0"
     inkscape:pagecheckerboard="0"
     inkscape:deskcolor="#d1d1d1"
     inkscape:zoom="0.52866397"
     inkscape:cx="332.91469"
     inkscape:cy="402.90244"
     inkscape:window-width="1920"
     inkscape:window-height="1027"
     inkscape:window-x="0"
     inkscape:window-y="25"
     inkscape:window-maximized="0"
     inkscape:current-layer="svg25" />
  <path
     d="m 70.98075,553.8376 h 159.26564 v -4.88731 a 16,16 0 0 0 -16,-16 H 86.98073 a 16,16 0 0 0 -16,16 v 4.88731 z"
     fill="#e6e6e6"
     id="path1" />
  <path
     d="m 154.34062,533.92552 -4.84319,-1.95053 c 50.67694,-125.78911 45.79487,-284.48233 2.9564,-420.6131 a 85.00544,85.00544 0 0 1 24.76415,-89.93432 c 24.86485,-22.18892 59.14455,-27.59433 89.46708,-14.10823 29.93051,13.314 34.056,36.505 34.056,59.58311 h -5.22183 c 0,-24.63475 -5.26453,-43.38347 -30.95677,-54.81195 C 236.14329,-0.54845 204.00791,4.52103 180.6952,25.32418 a 79.83855,79.83855 0 0 0 -23.26052,84.46964 c 43.33314,137.70266 47.929,297.48589 -3.09406,424.1317 z"
     fill="#e6e6e6"
     id="path2" />
  <circle
     cx="-296.82462"
     cy="125.64797"
     r="18.276381"
     fill="#e6e6e6"
     id="circle2"
     transform="scale(-1,1)" />
  <path
     d="m 324.97197,157.50893 v -34.62938 h -5.38462 v 34.62938 a 7.17949,7.17949 0 1 0 5.38462,0 z"
     fill="#e6e6e6"
     id="path3" />
  <path
     d="M 351.00112,96.27497 A 30.05968,30.05968 0 0 0 320.97563,66.24948 H 271.3683 a 30.0255,30.0255 0 1 0 0,60.051 h 49.60733 a 30.05968,30.05968 0 0 0 30.02549,-30.02551 z"
     fill="#6c63ff"
     id="path4" />
  <path
     d="m 420.89576,282.21192 c -4.98069,-63.72268 -30.44665,-94.08347 -14.14038,-113.123 15.61943,-18.23757 59.61664,-14.47019 87.87233,3.03008 76.21224,47.20238 104.13353,235.33248 6.06016,327.24868 -93.19465,87.34376 -269.81678,59.36934 -309.06819,-12.12033 -9.15849,-16.6806 -16.43412,-45.92231 -3.03008,-63.63168 33.27833,-43.96718 154.271,35.66934 208.06552,-14.14038 31.88056,-29.51894 26.97403,-92.29249 24.24064,-127.26337 z"
     fill="#3f3d56"
     id="path5" />
  <path
     d="m 362.63824,250.55408 a 7.82192,7.82192 0 0 1 3.92393,10.1798 7.50441,7.50441 0 0 1 -0.59726,1.08727 l 16.35806,21.84173 -8.16253,12.19983 -19.17365,-32.34318 a 7.80022,7.80022 0 0 1 -2.37337,-9.22241 7.4648,7.4648 0 0 1 9.83829,-3.82815 q 0.0938,0.0413 0.18653,0.0851 z"
     fill="#ffb6b6"
     id="path6" />
  <path
     d="m 362.65145,288.21253 c -1.07063,0.94943 1.89886,2.12109 5.04,0.27273 0.89894,-0.53529 1.28276,-0.75752 1.38374,-0.6161 0.2525,0.35348 -1.2221,2.95937 -0.82823,8.7468 0.24245,3.45434 5.9794,9.9488 12.49408,16.28163 8.80741,8.56507 19.04909,16.82708 19.04909,16.82708 l 3.5957,-2.87862 37.70431,-30.23009 6.36316,-8.8074 a 62.68137,62.68137 0 0 0 -2.616,-10.23158 111.54646,111.54646 0 0 0 -5.67634,-13.47378 c -1.1716,-2.37354 -2.37354,-4.636 -3.525,-6.71665 l -20.20054,22.261 -16.92806,18.64512 c 0,0 -4.92893,-7.9388 -8.7468,-10.10027 a 3.636,3.636 0 0 0 -1.61608,-0.5555 c -3.85831,-0.18186 -4.0906,-2.28267 0.38381,-6.85812 4.47441,-4.57539 -1.1716,-0.303 -5.15111,-1.5352 -3.97951,-1.23227 0,0 -0.83834,-3.08063 -0.83834,-3.08057 -11.99912,-9.26193 -11.99912,-9.26193 l -0.46464,0.41408 -8.4337,7.444 -2.414,2.13114 c 0,0 2.63622,7.23176 3.36341,8.75691 0.72731,1.52508 1.12118,1.6059 0.0607,2.56538 z"
     fill="#6c63ff"
     id="path7" />
  <polygon
     points="567.832,426.935 610.804,428.521 611.215,417.38 568.439,410.493 "
     fill="#ffb6b6"
     id="polygon7"
     transform="matrix(-1,0,0,1,751.13136,0)" />
  <path
     d="m 148.0923,431.8751 0.40561,-17.83786 -7.62572,0.28138 -12.31109,-16.49047 a 4.76656,4.76656 0 0 0 -8.58321,3.02706 l 0.78187,21.19 7.67777,3.37409 -7.49039,1.70441 0.2948,7.98946 z"
     fill="#2f2e41"
     id="path8" />
  <path
     d="m 381.07668,432.85844 -135.48815,3.43539 c 0,0 -58.5083,3.37942 -72.23573,-5.55075 l -14.47608,-1.82755 -0.78459,-21.26375 c 0,0 8.85213,0.0653 13.94155,-2.306 5.08942,-2.37128 1.55231,-5.27294 6.40475,-2.41985 4.85244,2.85309 4.33986,3.19622 8.0916,1.885 3.75174,-1.31122 175.79511,-27.53448 175.79511,-27.53448 z"
     fill="#2f2e41"
     id="path9" />
  <polygon
     points="518.168,393.243 548.592,423.631 556.471,415.744 529.796,381.601 "
     fill="#ffb6b6"
     id="polygon9"
     transform="matrix(-1,0,0,1,751.13136,0)" />
  <path
     d="m 210.51279,416.76921 -11.83461,-13.35273 -5.399,5.39271 -20.24079,-3.716 a 4.76655,4.76655 0 0 0 -4.23354,8.05677 l 14.985,15.00253 7.92335,-2.7483 -4.332,6.34388 5.64994,5.65656 z"
     fill="#2f2e41"
     id="path10" />
  <path
     d="m 434.53054,358.65652 -1.347,31.31039 c -1.58568,36.85938 -42.178,59.168 -73.65429,39.923 q -0.8702,-0.532 -1.74621,-1.10227 c 0,0 -11.93274,-3.20452 -11.57052,-8.27942 0.36222,-5.0749 -2.5529,-7.5448 -5.1327,-6.16087 -2.5798,1.38393 -36.357,-46.55255 -36.357,-46.55255 0,0 -70.17819,35.00629 -85.66005,43.247 0,0 -14.556,-22.75905 -13.50069,-22.52046 1.05531,0.23859 86.81888,-59.78843 86.81888,-59.78843 0,0 13.97191,-14.14036 31.30356,-4.804 0.361,1.37144 0.0524,1.41923 0.0524,1.41923 l 57.25272,46.65174 8.08973,-15.36335 z"
     fill="#2f2e41"
     id="path11" />
  <path
     d="m 380.54916,319.51335 a 32.35389,32.35389 0 0 0 0.6161,4.30266 25.39005,25.39005 0 0 0 1.97961,5.939 c 0,0 0,2.111 4.04011,9.18117 4.04011,7.07017 -1.01,4.0401 -4.04011,9.29226 -3.03008,5.242 0,2.82806 3.36341,6.20151 a 7.7216,7.7216 0 0 1 1.909,7.60553 c 0,0 43.39078,0.0303 51.471,-2.99975 8.08022,-3.03008 9.91841,-20.09955 2.67653,-21.78628 -7.23176,-1.68679 2.19175,-3.36341 6.444,-7.252 4.25224,-3.88864 -4.25223,-10.25179 -4.25223,-10.25179 0,0 3.50482,-6.05 3.21193,-26.36168 a 40.02917,40.02917 0 0 0 -0.51512,-5.57536 62.68137,62.68137 0 0 0 -2.616,-10.23158 111.54646,111.54646 0 0 0 -5.67634,-13.47378 c -1.1716,-2.37354 -2.37354,-4.636 -3.525,-6.71665 -0.1818,-0.32321 -0.35349,-0.63632 -0.53535,-0.94942 -2.19174,-3.87853 -4.19157,-7.05 -5.51471,-9.08013 -1.02013,-1.57564 -1.63623,-2.46447 -1.63623,-2.46447 l -7.353,-12.787 -24.54364,11.50422 1.39385,18.81681 -4.232,14.19086 -1.94934,6.53491 -1.50493,5.04 -2.32311,7.80749 c 0,0 0.63632,0.0303 -0.1212,1.07062 a 34.48445,34.48445 0 0 0 -6.57523,15.82711 32.22705,32.22705 0 0 0 -0.192,6.61574 z"
     fill="#6c63ff"
     id="path12" />
  <path
     d="m 309.66985,321.54122 0.46062,-0.1489 58.74434,-18.91675 -21.64693,-71.01669 a 9.76773,9.76773 0 0 0 -14.31159,-5.56184 l -37.5399,22.17917 a 14.71548,14.71548 0 0 0 -6.31875,17.78792 z"
     fill="#2f2e41"
     id="path13" />
  <path
     d="m 309.43119,326.05588 59.21706,-19.069 -21.64693,-71.01669 a 9.76774,9.76774 0 0 0 -14.31164,-5.56184 l -39.33218,19.63747 c -5.909,3.4901 -5.77083,12.5236 -3.0271,19.93565 z"
     fill="#6c63ff"
     id="path14" />
  <path
     d="m 315.35992,331.19606 a 11.29067,11.29067 0 0 0 9.05,0.90014 l 37.85,-12.189 a 11.70354,11.70354 0 0 0 7.57486,-14.48985 l -18.9763,-62.255 a 9.767,9.767 0 0 0 -12.3904,-6.43128 l -39.22419,12.879 a 14.72181,14.72181 0 0 0 -9.26517,18.95877 l 20.28935,56.56519 a 11.30443,11.30443 0 0 0 5.09185,6.06203 z"
     fill="#3f3d56"
     id="path15" />
  <circle
     cx="-397.44058"
     cy="205.21391"
     r="27.110029"
     fill="#ffb6b6"
     id="circle15"
     transform="scale(-1,1)" />
  <path
     d="m 489.11407,232.73235 a 23.51079,23.51079 0 0 1 -11.54593,10.79338 27.03309,27.03309 0 0 1 -6.22181,1.96918 24.32592,24.32592 0 0 0 -2.87928,-6.81569 20.083,20.083 0 0 1 0,7.19949 23.90012,23.90012 0 0 1 -9.66306,-1.19949 20.72563,20.72563 0 0 1 -13.03373,-13.2043 c -2.15964,-7.18605 0.16652,-14.86126 0.34976,-22.36206 0.18876,-7.50161 -3.3734,-16.47382 -10.82029,-17.402 -5.67126,-0.708 -4.96994,-0.15829 -9.045,3.84815 5.70016,6.332 -8.19607,34.37709 -15.65267,33.13789 -4.21581,-0.70062 -7.31811,-4.04765 -8.15195,-3.9316 -4.26951,10.45617 8.57381,25.28562 -1.61266,30.15385 l 0.75583,-1.00022 c 5.33192,-8.80838 -10.44513,-23.68549 -5.11318,-32.49391 1.4865,-2.46411 3.03207,-5.353 2.11235,-8.07886 -0.87294,-2.5917 -5.29326,-3.41192 -6.2259,-1.05306 1.51608,-5.40656 -2.71634,-11.75247 -8.33769,-12.30423 -4.994,-0.49271 -4.7058,0.93072 -9.46731,2.22945 a 24.29314,24.29314 0 0 0 -2.60765,-5.83464 19.91791,19.91791 0 0 1 0.13887,6.29644 7.85474,7.85474 0 0 1 -4.9415,-1.046 c -4.3972,-2.636 -4.52795,-9.44015 -1.50733,-13.5813 3.02616,-4.14191 8.09474,-6.187 12.98486,-7.73444 0.0449,-10.34157 27.8717,-15.29232 32.98954,-5.67751 0.52649,-7.785 9.45039,-13.02916 17.13792,-11.7067 7.68753,1.32246 13.7522,7.48658 17.44971,14.35725 3.69673,6.86515 5.53208,14.55228 8.23846,21.86485 2.70638,7.31257 6.575,14.60413 13.05555,18.94285 6.47973,4.33319 16.10945,4.72678 21.51973,-0.88963 a 17.16757,17.16757 0 0 1 0.0944,15.52286 z"
     fill="#2f2e41"
     id="path16" />
  <path
     d="m 461.29687,356.70487 a 9.78761,9.78761 0 0 0 -1.81465,-1.14924 c -10.37663,-5.16441 -42.64546,-18.5698 -67.8772,-18.01975 -48.54787,1.05833 -110.33162,54.63715 -95.95255,90.617 10.94126,27.37774 65.33636,42.95393 105.04279,30.49612 55.62582,-17.4525 77.58194,-88.40531 60.60161,-101.94413 z"
     fill="#3f3d56"
     id="path17" />
  <path
     d="m 662.83968,553.94057 c 15.8635,-2.9927 29.90557,-74.46031 -1.30546,-109.65831 -10.69336,-12.05937 -24.03189,-17.30805 -41.77459,-22.19275 -102.12134,-28.11479 -180.01109,-1.32017 -190.47828,5.22183 -10.44365,6.52728 -28.75241,104.87528 -5.34013,118.79649 13.17287,7.83274 39.282,11.74911 52.21825,2.61092 19.03473,-13.44617 -12.91529,-48.32363 1.30545,-71.80009 16.13745,-26.64073 101.11476,-35.61431 143.71843,-9.13819 45.45376,28.2473 -48.30187,103.13103 41.65633,86.1601 z"
     fill="#f2f2f2"
     id="path18" />
  <path
     d="m 556.77841,432.43017 h 60.60427 c 14.96069,-14.33791 25.65758,-28.156 17.09352,-39.62591 a 12.43165,12.43165 0 0 0 -12.43164,-12.43164 h -69.928 a 12.43166,12.43166 0 0 0 -12.43165,12.43164 c -3.26065,13.06938 2.5646,26.27999 17.0935,39.62591 z"
     fill="#cccccc"
     id="path19" />
  <path
     d="m 567.66243,364.72235 a 2.80741,2.80741 0 0 0 2.03464,-4.86592 l -0.19237,-0.76477 q 0.038,-0.0919 0.0764,-0.18358 a 7.5391,7.5391 0 0 1 13.90674,0.0517 c 2.27452,5.4781 5.17037,10.96553 5.8834,16.75771 a 22.30361,22.30361 0 0 1 -0.39152,7.67061 89.41955,89.41955 0 0 0 8.13413,-37.13872 86.307,86.307 0 0 0 -0.53535,-9.6283 q -0.44351,-3.93126 -1.23056,-7.80652 a 90.4555,90.4555 0 0 0 -17.93811,-38.33731 24.07269,24.07269 0 0 1 -10.01181,-10.38735 18.36288,18.36288 0 0 1 -1.67,-5.0179 c 0.48739,0.0639 1.83779,-7.3591 1.47018,-7.81452 0.67924,-1.03072 1.895,-1.54307 2.6368,-2.54885 3.68944,-5.00211 8.77254,-4.12872 11.42613,2.66875 5.66869,2.861 5.72356,7.60578 2.24528,12.16916 -2.2129,2.90325 -2.517,6.83168 -4.45862,9.93984 0.1998,0.25572 0.40756,0.50345 0.6073,0.75916 a 91.03942,91.03942 0 0 1 9.50222,15.05379 37.846,37.846 0 0 1 2.25945,-17.5787 c 2.16269,-5.21725 6.21632,-9.61123 9.786,-14.12154 4.28781,-5.41757 13.08034,-3.05323 13.83576,3.81439 q 0.011,0.0998 0.0214,0.19942 -0.79533,0.44867 -1.55706,0.95246 a 3.808,3.808 0 0 0 1.53533,6.92993 l 0.0777,0.012 a 37.88985,37.88985 0 0 1 -0.99877,5.66515 c 4.5795,17.71008 -5.3073,24.16047 -19.42431,24.45023 -0.31164,0.15978 -0.61532,0.31957 -0.92695,0.47144 a 92.9244,92.9244 0 0 1 5.00193,23.53931 88.13549,88.13549 0 0 1 -0.0639,14.23066 l 0.024,-0.16778 a 23.28912,23.28912 0 0 1 7.95036,-13.44763 c 6.11821,-5.0259 14.76211,-6.87667 21.36258,-10.9165 a 4.37072,4.37072 0 0 1 6.69422,4.252 q -0.0133,0.0882 -0.027,0.17642 a 25.578,25.578 0 0 0 -2.86848,1.38225 q -0.79533,0.44877 -1.55706,0.95247 a 3.80809,3.80809 0 0 0 1.53533,6.93 l 0.0777,0.0119 c 0.0559,0.008 0.10388,0.016 0.15973,0.024 a 37.923,37.923 0 0 1 -6.97545,10.92265 c -2.86344,15.46021 -15.162,16.927 -28.31753,12.42487 h -0.008 a 92.89706,92.89706 0 0 1 -6.24044,18.21782 h -22.2928 c -0.08,-0.24769 -0.15184,-0.50341 -0.22378,-0.75114 a 25.32893,25.32893 0 0 0 6.16855,-0.36745 c -1.654,-2.02957 -3.308,-4.07512 -4.962,-6.10463 a 1.38378,1.38378 0 0 1 -0.10387,-0.11986 c -0.839,-1.03867 -1.68595,-2.06946 -2.52492,-3.10817 l -4.4e-4,-10e-4 a 37.1011,37.1011 0 0 1 1.08711,-9.45126 z"
     fill="#cccccc"
     id="path20" />
  <path
     d="m 491.62593,429.18295 a 5.3847,5.3847 0 0 1 -5.18906,3.63473 l -22.23279,-0.57217 a 5.31108,5.31108 0 0 1 -5.01933,-3.9083 l -3.14618,-33.64248 a 8.21958,8.21958 0 0 1 -3.55661,0.73079 8.1081034,8.1081034 0 0 1 0.40694,-16.2111 6.86892,6.86892 0 0 1 1.45706,0.15154 5.495,5.495 0 0 1 4.09046,-1.76494 l 34.19915,0.88312 a 4.91207,4.91207 0 0 1 0.84358,0.10473 5.34133,5.34133 0 0 1 4.08973,6.93595 z m -36.23256,-36.7725 -2.23876,-8.017 a 5.46025,5.46025 0 0 1 -0.0171,-2.83205 c -0.10863,-2.9e-4 -0.20446,-0.0518 -0.31309,-0.0521 a 5.79951,5.79951 0 0 0 -0.27155,11.59579 5.45943,5.45943 0 0 0 2.84049,-0.69468 z"
     fill="#cccccc"
     id="path21" />
  <path
     d="m 493.47915,378.58887 c -0.7286,4.166 -8.92027,7.09477 -18.77014,6.58571 -9.05759,-0.41732 -16.4636,-3.59782 -17.82043,-7.36721 a 5.05658,5.05658 0 0 1 1.54784,-0.20635 l 34.19915,0.88312 a 4.91207,4.91207 0 0 1 0.84358,0.10473 z"
     fill="#ffffff"
     id="path22" />
  <path
     d="m 749.94068,555.518 -748.75,0.30734 a 1.190685,1.190685 0 0 1 0,-2.38137 l 748.75,-0.30733 a 1.19068,1.19068 0 1 1 0,2.38136 z"
     fill="#cacaca"
     id="path23" />
  <path
     d="m 329.99018,289.41354 a 7.82193,7.82193 0 0 1 7.53635,7.88854 7.50491,7.50491 0 0 1 -0.1333,1.23334 l 23.49857,13.87315 -2.84432,14.40044 -30.13545,-22.48477 a 7.80023,7.80023 0 0 1 -5.73687,-7.60093 7.46479,7.46479 0 0 1 7.6101,-7.31661 q 0.10251,0.002 0.20492,0.007 z"
     fill="#ffb6b6"
     id="path24" />
  <path
     d="m 349.23977,322.4865 c 0.62864,-0.84208 0.89874,-1.19462 1.04164,-1.09788 0.36793,0.222 0.0139,3.19725 2.60182,8.38274 3.64349,7.28491 41.844,18.44233 41.844,18.44233 l 4.70333,-8.61053 20.68782,-37.83969 7.13063,-30.32979 a 13.53056,13.53056 0 0 0 0.36077,-3.2277 128.177,128.177 0 0 0 -20.17133,-11.61092 13.5043,13.5043 0 0 0 -6.06057,7.22046 l -14.24065,39.92911 -5.68258,15.9421 c 0,0 -10.02413,-7.16788 -13.66019,-5.85219 -3.63018,1.324 -4.66184,-0.53234 -2.28889,-6.47485 2.373,-5.94254 -1.1888,0.17448 -5.3336,0.56321 -4.1531,0.39462 0,0 -1.96174,-2.52163 -1.96174,-2.52163 -14.64468,-3.94046 -14.64468,-3.94046 l -0.26955,0.56271 -4.915,10.11037 -1.40707,2.90478 c 0,0 5.21062,5.65345 6.46781,6.78012 1.26307,1.135 1.65316,1.05648 1.03474,2.34947 -0.61016,1.28714 2.58014,1.2286 4.76329,-1.68176 z"
     fill="#6c63ff"
     id="path25" />
</svg>
