<?xml version="1.0" encoding="UTF-8" standalone="no"?>
<!-- Created with Inkscape (http://www.inkscape.org/) -->

<svg
   width="210mm"
   height="210mm"
   viewBox="0 0 210 210"
   version="1.1"
   id="svg1"
   inkscape:version="1.4.2 (ebf0e940, 2025-05-08)"
   sodipodi:docname="favicon.svg"
   inkscape:export-filename="favicon.png"
   inkscape:export-xdpi="96"
   inkscape:export-ydpi="96"
   xmlns:inkscape="http://www.inkscape.org/namespaces/inkscape"
   xmlns:sodipodi="http://sodipodi.sourceforge.net/DTD/sodipodi-0.dtd"
   xmlns:xlink="http://www.w3.org/1999/xlink"
   xmlns="http://www.w3.org/2000/svg"
   xmlns:svg="http://www.w3.org/2000/svg">
  <sodipodi:namedview
     id="namedview1"
     pagecolor="#ffffff"
     bordercolor="#000000"
     borderopacity="0.25"
     inkscape:showpageshadow="2"
     inkscape:pageopacity="0.0"
     inkscape:pagecheckerboard="0"
     inkscape:deskcolor="#d1d1d1"
     inkscape:document-units="mm"
     inkscape:zoom="0.81604145"
     inkscape:cx="525.09587"
     inkscape:cy="390.91151"
     inkscape:window-width="2560"
     inkscape:window-height="1027"
     inkscape:window-x="0"
     inkscape:window-y="25"
     inkscape:window-maximized="0"
     inkscape:current-layer="layer1" />
  <defs
     id="defs1">
    <linearGradient
       inkscape:collect="always"
       xlink:href="#linearGradient2"
       id="linearGradient3"
       x1="307.52621"
       y1="152.47421"
       x2="329.85147"
       y2="152.47421"
       gradientUnits="userSpaceOnUse"
       gradientTransform="matrix(2.0227463,0,0,2.0227463,-610.80884,-134.79633)" />
    <linearGradient
       id="linearGradient2"
       inkscape:collect="always">
      <stop
         style="stop-color:#fde047;stop-opacity:1;"
         offset="0"
         id="stop2" />
      <stop
         style="stop-color:#f97316;stop-opacity:1;"
         offset="1"
         id="stop3" />
    </linearGradient>
  </defs>
  <g
     inkscape:label="Layer 1"
     inkscape:groupmode="layer"
     id="layer1">
    <path
       d="m 55.07298,125.65701 v 0 -24.05974 c 0,-5.134096 2.416041,-9.932626 6.543467,-12.952686 L 153.25824,21.096078 c 2.48313,-1.845598 5.50326,-2.818723 8.59033,-2.818723 3.82545,0 7.48301,1.510023 10.20114,4.228096 L 190.4384,40.8942 c 2.71813,2.718072 4.22813,6.375687 4.22813,10.234632 0,3.087154 -0.97314,6.107219 -2.81872,8.590388 l -67.51498,91.60823 c -3.01999,4.1274 -7.85207,6.54344 -12.95264,6.54344 H 87.320465 l -8.523222,8.52327 c -4.194533,4.19448 -11.006507,4.19448 -15.201021,0 L 46.58334,149.38119 c -4.194513,-4.19451 -4.194513,-11.0064 0,-15.20092 z m -40.602949,49.09261 17.348574,-17.34852 23.690661,23.69064 -6.610574,6.61056 c -1.510005,1.51 -3.556965,2.34891 -5.704519,2.34891 l -23.019489,0.0334 c -4.46302,0 -8.05347,-3.5905 -8.05347,-8.05346 v -1.57713 c 0,-2.14761 0.838832,-4.19454 2.348817,-5.70456 z"
       id="path1"
       style="fill:#f97316;fill-opacity:1;stroke-width:0.33556"
       inkscape:label="highlighter"
       sodipodi:nodetypes="ccsccsccsccscccccccccsccsscc" />
    <path
       d="m 13.683341,174.66815 18.056399,-18.05636 24.657256,24.65723 -6.880287,6.88029 c -1.571611,1.57163 -3.702081,2.44477 -5.937266,2.44477 l -23.958701,0.0348 c -4.645122,0 -8.38205,-3.73701 -8.38205,-8.38207 v -1.64148 c 0,-2.23523 0.873057,-4.36566 2.444649,-5.93731 z"
       id="path1-4"
       style="fill:url(#linearGradient3);stroke-width:0.349252"
       inkscape:label="highlighter"
       sodipodi:nodetypes="cccsccsscc" />
    <path
       d="M 117.879,124.02483 171.03191,51.845589 161.19994,42.013621 89.020684,95.166578 Z"
       style="fill:#9333ea;fill-opacity:1;stroke-width:0.33556"
       id="path1-9" />
  </g>
</svg>
