<?xml version="1.0" encoding="UTF-8" standalone="no"?>
<svg
   viewBox="0 0 640 640"
   version="1.1"
   id="svg1"
   sodipodi:docname="favicon2.svg"
   inkscape:version="1.4.2 (ebf0e940, 2025-05-08)"
   inkscape:export-filename="favicon-orange.png"
   inkscape:export-xdpi="96"
   inkscape:export-ydpi="96"
   xmlns:inkscape="http://www.inkscape.org/namespaces/inkscape"
   xmlns:sodipodi="http://sodipodi.sourceforge.net/DTD/sodipodi-0.dtd"
   xmlns="http://www.w3.org/2000/svg"
   xmlns:svg="http://www.w3.org/2000/svg">
  <defs
     id="defs1" />
  <sodipodi:namedview
     id="namedview1"
     pagecolor="#ffffff"
     bordercolor="#000000"
     borderopacity="0.25"
     inkscape:showpageshadow="2"
     inkscape:pageopacity="0.0"
     inkscape:pagecheckerboard="0"
     inkscape:deskcolor="#d1d1d1"
     inkscape:zoom="1.0174004"
     inkscape:cx="301.258"
     inkscape:cy="320.4245"
     inkscape:window-width="2560"
     inkscape:window-height="1027"
     inkscape:window-x="0"
     inkscape:window-y="25"
     inkscape:window-maximized="0"
     inkscape:current-layer="svg1" />
  <!--!Font Awesome Free 7.1.0 by @fontawesome - https://fontawesome.com License - https://fontawesome.com/license/free Copyright 2025 Fonticons, Inc.-->
  <path
     d="M 367,379 525.4,163.9 496.1,134.6 281,293 Z m -187,5 v 0 -71.7 c 0,-15.3 7.2,-29.6 19.5,-38.6 L 472.6,72.4 C 480,66.9 489,64 498.2,64 c 11.4,0 22.3,4.5 30.4,12.6 l 54.8,54.8 c 8.1,8.1 12.6,19 12.6,30.5 0,9.2 -2.9,18.2 -8.4,25.6 l -201.2,273 c -9,12.3 -23.4,19.5 -38.6,19.5 h -71.7 l -25.4,25.4 c -12.5,12.5 -32.8,12.5 -45.3,0 l -50.7,-50.7 c -12.5,-12.5 -12.5,-32.8 0,-45.3 z m -121,146.3 51.7,-51.7 70.6,70.6 -19.7,19.7 c -4.5,4.5 -10.6,7 -17,7 L 76,576 C 62.7,576 52,565.3 52,552 v -4.7 c 0,-6.4 2.5,-12.5 7,-17 z"
     id="path1"
     style="fill:#f97316;fill-opacity:1"
     sodipodi:nodetypes="cccccccsccssssccscsssccsccsccsss" />
</svg>
