<svg xmlns="http://www.w3.org/2000/svg" viewBox="0 0 250 250">
<path fill="currentColor" opacity="1.000000" stroke="none" d="
M83.073746,174.822357
	C78.664459,170.252182 74.255165,165.682007 69.448944,160.695740
	C67.665825,158.992050 66.279640,157.704437 64.893463,156.416824
	C64.666306,156.071854 64.439156,155.726883 63.861691,154.948456
	C62.671730,153.683289 61.832081,152.851578 60.992432,152.019882
	C60.858490,151.716049 60.724548,151.412201 60.278015,150.718033
	C59.373852,149.715088 58.782284,149.102463 58.190712,148.489853
	C52.357891,139.735474 48.965160,130.553513 54.750233,120.518707
	C56.880779,116.823059 59.664223,113.325882 62.773182,110.400642
	C85.668930,88.857956 110.388084,69.786293 138.936234,56.213799
	C148.713623,51.565392 158.845901,47.704384 169.939957,47.409954
	C188.504593,46.917259 200.391724,59.567417 197.614532,77.951736
	C196.336853,86.409584 193.191177,94.585243 190.590744,103.425446
	C189.946136,104.980209 189.603333,105.998383 189.260529,107.016563
	C187.771484,109.898849 186.282440,112.781136 184.477631,116.170853
	C183.814041,117.465454 183.466248,118.252640 183.118454,119.039825
	C178.800674,125.820145 174.482880,132.600464 169.794159,139.821411
	C168.934097,141.169113 168.444962,142.076187 167.955811,142.983261
	C162.834091,149.678177 157.712372,156.373093 152.192505,163.521759
	C151.129364,164.956207 150.464371,165.936890 149.799377,166.917572
	C147.257263,169.714859 144.715134,172.512131 141.775238,175.721252
	C140.615036,177.099442 139.852600,178.065811 139.090179,179.032181
	C137.756393,180.326477 136.422592,181.620758 134.636246,183.282455
	C133.654770,184.295822 133.125854,184.941772 132.596939,185.587723
	C132.727692,185.723755 132.858429,185.859802 132.505417,185.904037
	C131.335602,186.533981 130.649551,187.255722 129.963501,187.977478
	C129.963516,187.977478 129.997696,188.002701 129.672195,188.036377
	C128.747009,188.655655 128.147339,189.241272 127.547668,189.826889
	C127.097252,189.962021 126.646851,190.097168 125.733398,190.467026
	C124.528160,191.184235 123.785973,191.666702 123.043793,192.149170
	C121.911842,192.461502 120.779892,192.773819 119.027222,193.192719
	C117.611496,193.556030 116.816498,193.812744 116.021500,194.069458
	C114.943657,193.999039 113.865807,193.928604 112.191711,193.745560
	C111.054466,193.580795 110.513474,193.528656 109.972481,193.476532
	C109.533257,193.338806 109.094032,193.201065 108.063675,192.885895
	C106.642113,192.489975 105.811684,192.271469 104.981262,192.052979
	C103.867050,191.403610 102.752846,190.754242 101.137268,189.846481
	C100.102646,189.361267 99.569389,189.134445 99.036140,188.907623
	C98.824783,188.645996 98.613426,188.384384 97.996666,187.783203
	C95.628471,185.995087 93.665680,184.546539 91.702888,183.097992
	C90.418785,181.769180 89.134682,180.440384 87.453148,178.685486
	C85.728394,177.113724 84.401070,175.968048 83.073746,174.822357
M111.750771,153.149643
	C112.912865,153.143234 114.081535,153.215073 115.236008,153.118011
	C124.152954,152.368271 131.548950,146.083939 133.755676,137.422485
	C136.001389,128.608078 132.398666,119.427483 124.712059,114.377213
	C117.756096,109.806984 107.528015,110.066154 100.834343,115.408028
	C93.868645,120.967003 90.903976,128.379318 93.118546,137.121689
	C95.418785,146.202240 101.592651,151.503098 111.750771,153.149643
z"></path>
</svg>

